<svg width="40" height="40" viewBox="0 0 40 40" fill="none" xmlns="http://www.w3.org/2000/svg">
<g clip-path="url(#clip0)">
<path d="M20 0C8.9543 0 0 8.9543 0 20C0 31.0457 8.9543 40 20 40C31.0457 40 40 31.0457 40 20C40 8.9543 31.0457 0 20 0ZM20 27.1934C16.027 27.1934 12.8057 23.973 12.8057 20C12.8057 16.027 16.027 12.8066 20 12.8066C23.973 12.8066 27.1934 16.027 27.1934 20C27.1934 23.973 23.973 27.1934 20 27.1934Z" fill="#53BCE9"/>
<path d="M20 27.1935V40.0001C14.4767 40.0001 9.47758 37.7617 5.85797 34.1421L14.9135 25.0865C16.2156 26.3887 18.0131 27.1935 20 27.1935Z" fill="#47C97F"/>
<path d="M5.85797 5.85797L14.9135 14.9135C13.6115 16.2148 12.8066 18.0139 12.8066 20.0001H0C0 14.4776 2.23836 9.47672 5.85797 5.85797Z" fill="#36A6CE"/>
<path d="M34.142 5.85797L25.0866 14.9134C23.7845 13.6114 21.987 12.8065 20 12.8065V0C25.5233 0 30.5224 2.23836 34.142 5.85797Z" fill="#FA3D62"/>
<path d="M27.1935 20H40C40 25.5224 37.7617 30.5233 34.142 34.142L25.0866 25.0866C26.3886 23.7853 27.1935 21.9861 27.1935 20Z" fill="#E29A4B"/>
<path d="M25.0866 25.0865L34.1421 34.1421C30.5224 37.7616 25.5233 40 20 40V27.1934C21.987 27.1934 23.7845 26.3886 25.0866 25.0865Z" fill="#FCB65F"/>
<path d="M40 20H27.1934C27.1934 18.0139 26.3885 16.2147 25.0865 14.9134L34.142 5.85797C37.7616 9.47672 40 14.4776 40 20Z" fill="#E02F5E"/>
<path d="M12.8066 20C12.8066 21.9861 13.6115 23.7853 14.9135 25.0866L5.85797 34.142C2.23836 30.5233 0 25.5224 0 20H12.8066Z" fill="#35B568"/>
</g>
<defs>
<clipPath id="clip0">
<rect width="40" height="40" fill="white"/>
</clipPath>
</defs>
</svg>
