<svg width="40" height="40" viewBox="0 0 40 40" fill="none" xmlns="http://www.w3.org/2000/svg">
<g clip-path="url(#clip0)">
<path d="M23.2257 10.3225C23.2257 12.1041 21.7816 13.5482 20 13.5482C18.2184 13.5482 16.7743 12.1041 16.7743 10.3225C16.7743 8.54089 18.2184 7.0968 20 7.0968C21.7816 7.0968 23.2257 8.54089 23.2257 10.3225Z" fill="#DF3F5F"/>
<path d="M26.4517 16.1291C26.4517 19.692 23.5632 22.5805 20 22.5805C16.4368 22.5805 13.5483 19.692 13.5483 16.1291C13.5483 12.5659 16.4368 9.67737 20 9.67737C23.5632 9.67737 26.4517 12.5659 26.4517 16.1291Z" fill="#DF3F5F"/>
<path d="M27.2626 27.868L23.3304 26.0532C22.8732 25.8423 22.5806 25.3848 22.5806 24.8816V22.5806H17.4194V24.8816C17.4194 25.3848 17.1268 25.8423 16.6696 26.0532L12.7371 27.868C12.0517 28.1845 11.6129 28.8705 11.6129 29.6255V30.3226C11.6129 31.0352 12.1906 31.6129 12.9031 31.6129H27.0969C27.8094 31.6129 28.3871 31.0352 28.3871 30.3226V29.6255C28.3871 28.8705 27.948 28.1845 27.2626 27.868Z" fill="#ECBD83"/>
<path d="M17.4194 24.6054C18.0862 24.9051 18.8092 25.098 19.5731 25.1474C19.7162 25.1569 19.859 25.1614 20 25.1614C20.9177 25.1614 21.7896 24.9658 22.5806 24.6188V22.5806H17.4194V24.6054Z" fill="#E2A975"/>
<path d="M24.1602 16.5756C22.7966 16.257 20.3186 15.5041 18.5104 13.96C18.2526 13.7396 17.8754 13.7378 17.6355 13.9774L15.2167 16.3962C14.9747 16.6382 14.8386 16.9665 14.8386 17.3086V18.533C14.8386 21.2817 16.9131 23.6822 19.6564 23.8598C22.6624 24.0545 25.1611 21.6739 25.1611 18.7097V17.8326C25.1614 17.2302 24.7467 16.7126 24.1602 16.5756Z" fill="#F6D190"/>
<path d="M20 21.6733C19.411 21.6733 18.8425 21.5043 18.3557 21.1844C18.0575 20.9888 17.9752 20.5887 18.1705 20.2912C18.367 19.993 18.7671 19.9119 19.0637 20.106C19.6158 20.4688 20.3842 20.4688 20.9363 20.106C21.2335 19.9119 21.6336 19.993 21.8295 20.2912C22.0248 20.5887 21.9424 20.9888 21.6443 21.1844C21.1575 21.5043 20.589 21.6733 20 21.6733Z" fill="#C38C66"/>
<path d="M18.5547 15.6018C20.9537 17.2305 23.6151 17.7814 25.1611 17.9681V17.8326C25.1614 17.2336 24.7498 16.713 24.1663 16.5768C22.8 16.2582 20.307 15.502 18.4949 13.9465C18.2443 13.7317 17.8723 13.7405 17.6389 13.974L15.2167 16.3962C14.9747 16.6382 14.8386 16.9666 14.8386 17.3087V18.5431C14.8386 20.7178 16.1328 22.7118 18.1531 23.5169C19.14 23.9102 20.0961 23.9453 20.9695 23.7808C18.587 23.3237 16.7743 21.2256 16.7743 18.7097V17.1979C16.7743 16.8558 16.9101 16.5277 17.1521 16.2854L17.7652 15.6726C17.9767 15.4611 18.3072 15.434 18.5547 15.6018Z" fill="#ECBD83"/>
<path d="M17.4194 18.7097C17.0627 18.7097 16.7743 18.4207 16.7743 18.0646V17.4194C16.7743 17.063 17.0627 16.7743 17.4194 16.7743C17.7759 16.7743 18.0646 17.063 18.0646 17.4194V18.0646C18.0646 18.4207 17.7759 18.7097 17.4194 18.7097Z" fill="#6E4848"/>
<path d="M22.5806 18.7097C22.2241 18.7097 21.9354 18.4207 21.9354 18.0646V17.4194C21.9354 17.063 22.2241 16.7743 22.5806 16.7743C22.9373 16.7743 23.2257 17.063 23.2257 17.4194V18.0646C23.2257 18.4207 22.9373 18.7097 22.5806 18.7097Z" fill="#6E4848"/>
<path d="M25.8066 15.1614C25.9958 15.1614 26.1899 15.1464 26.376 15.1345C25.896 12.0455 23.2236 9.67737 20 9.67737C19.2554 9.67737 18.5431 9.80981 17.8778 10.0421C19.2462 13.059 22.2778 15.1614 25.8066 15.1614Z" fill="#FA3D62"/>
<path d="M28.3871 30.3226V29.6256C28.3871 28.8706 27.948 28.1846 27.2626 27.8681L25.2811 26.9535C22.1921 29.7175 17.8079 29.7175 14.7189 26.9535L12.7374 27.8681C12.052 28.1846 11.6129 28.8706 11.6129 29.6256V30.3226C11.6129 31.0352 12.1906 31.6129 12.9031 31.6129H27.0969C27.8094 31.6129 28.3871 31.0352 28.3871 30.3226Z" fill="#F9EAC7"/>
<path d="M12.9031 27.7915L12.7374 27.8681C12.052 28.1846 11.6129 28.8706 11.6129 29.6256V30.3226C11.6129 31.0352 12.1906 31.6129 12.9031 31.6129H27.0969C27.8094 31.6129 28.3871 31.0352 28.3871 30.3226H14.8386C13.7698 30.3226 12.9031 29.4559 12.9031 28.3872V27.7915Z" fill="#F4DBB3"/>
<path d="M21.9354 1.93542C21.9354 3.00446 21.069 3.87085 20 3.87085C18.931 3.87085 18.0646 3.00446 18.0646 1.93542C18.0646 0.866394 18.931 0 20 0C21.069 0 21.9354 0.866394 21.9354 1.93542Z" fill="#CA8535"/>
<path d="M4.43997 29.8184C4.21933 29.8184 4.00388 29.7052 3.88364 29.5017C2.98703 27.9834 2.3129 26.3596 1.87955 24.6768C1.79074 24.3323 1.99857 23.9801 2.34372 23.8913C2.68643 23.8037 3.04074 24.0103 3.12955 24.3555C3.53208 25.9204 4.16013 27.4314 4.99509 28.8452C5.17575 29.1519 5.07443 29.5478 4.76743 29.7293C4.66428 29.7895 4.55136 29.8184 4.43997 29.8184Z" fill="#ECEAEC"/>
<path d="M2.50517 16.1292C2.45146 16.1292 2.39744 16.1228 2.34373 16.1091C1.99858 16.0203 1.79045 15.6681 1.87925 15.3233C2.31291 13.6405 2.98704 12.017 3.88365 10.4984C4.06492 10.1923 4.46074 10.0916 4.76744 10.2711C5.07414 10.4527 5.17576 10.8482 4.99479 11.1552C4.16014 12.5687 3.53209 14.0797 3.12925 15.6446C3.05449 15.9357 2.79234 16.1292 2.50517 16.1292Z" fill="#ECEAEC"/>
<path d="M29.1733 5.08455C29.0619 5.08455 28.949 5.05556 28.8458 4.99513C27.4332 4.16018 25.9222 3.53273 24.3555 3.1296C24.01 3.04079 23.8022 2.68831 23.891 2.34377C23.9798 1.99862 24.3359 1.79201 24.6765 1.8796C26.3614 2.31356 27.9849 2.98769 29.5022 3.88369C29.8089 4.06496 29.9103 4.46077 29.7296 4.76747C29.6094 4.97103 29.3939 5.08455 29.1733 5.08455Z" fill="#ECEAEC"/>
<path d="M15.4846 38.1408C15.4309 38.1408 15.3768 38.1344 15.3231 38.1207C13.6377 37.6864 12.0147 37.0123 10.4983 36.1163C10.1916 35.935 10.09 35.5392 10.271 35.2325C10.4531 34.9264 10.848 34.8248 11.1547 35.0051C12.5668 35.8398 14.0777 36.4672 15.6445 36.8707C15.9899 36.9595 16.1978 37.3117 16.109 37.6562C16.0339 37.9473 15.7717 38.1408 15.4846 38.1408Z" fill="#ECEAEC"/>
<path d="M24.5154 38.1408C24.2282 38.1408 23.9661 37.9473 23.891 37.6562C23.8022 37.3117 24.01 36.9595 24.3555 36.8707C25.9222 36.4672 27.4332 35.8398 28.8458 35.0051C29.1541 34.8248 29.549 34.9264 29.7296 35.2325C29.9106 35.5392 29.8093 35.935 29.5023 36.1163C27.9852 37.0123 26.3617 37.6864 24.6768 38.1207C24.6231 38.1344 24.5691 38.1408 24.5154 38.1408Z" fill="#ECEAEC"/>
<path d="M37.4948 16.1292C37.2077 16.1292 36.9455 15.9358 36.8705 15.6446C36.4673 14.0779 35.8399 12.5669 35.0049 11.1549C34.8242 10.8482 34.9256 10.4524 35.2326 10.2711C35.5411 10.0913 35.9345 10.1924 36.1164 10.4985C37.0124 12.0149 37.6865 13.6378 38.1205 15.3233C38.2093 15.6678 38.0014 16.02 37.6563 16.1088C37.6029 16.1228 37.5486 16.1292 37.4948 16.1292Z" fill="#ECEAEC"/>
<path d="M35.56 29.8185C35.4486 29.8185 35.3357 29.7895 35.2326 29.7291C34.9256 29.5478 34.8242 29.152 35.0049 28.8453C35.8399 27.4332 36.4673 25.9223 36.8705 24.3555C36.9593 24.0101 37.3166 23.8028 37.6563 23.891C38.0014 23.9798 38.2093 24.332 38.1205 24.6766C37.6865 26.362 37.0124 27.985 36.1164 29.5014C35.9955 29.7053 35.7807 29.8185 35.56 29.8185Z" fill="#ECEAEC"/>
<path d="M10.8273 5.08459C10.6066 5.08459 10.3918 4.97107 10.271 4.76752C10.09 4.46081 10.1916 4.065 10.4983 3.88373C12.0147 2.98773 13.6377 2.3136 15.3231 1.87964C15.6646 1.79267 16.0199 1.99866 16.1087 2.34381C16.1975 2.68836 15.9896 3.04083 15.6445 3.12964C14.0774 3.53278 12.5668 4.16022 11.1547 4.99518C11.0516 5.0556 10.9387 5.08459 10.8273 5.08459Z" fill="#ECEAEC"/>
<path opacity="0.15" d="M20.9677 2.9032C19.8987 2.9032 19.0323 2.0368 19.0323 0.967773C19.0323 0.684265 19.0939 0.414185 19.2038 0.171265C18.5315 0.474915 18.0646 1.15027 18.0646 1.93549C18.0646 3.00452 18.931 3.87091 20 3.87091C20.7852 3.87091 21.4609 3.40399 21.7642 2.73199C21.5216 2.84155 21.2515 2.9032 20.9677 2.9032Z" fill="black"/>
<path d="M21.9354 38.0646C21.9354 39.1336 21.069 40 20 40C18.931 40 18.0646 39.1336 18.0646 38.0646C18.0646 36.9955 18.931 36.1292 20 36.1292C21.069 36.1292 21.9354 36.9955 21.9354 38.0646Z" fill="#CA8535"/>
<path opacity="0.15" d="M20.9677 39.0322C19.8987 39.0322 19.0323 38.1655 19.0323 37.0968C19.0323 36.813 19.0939 36.5432 19.2038 36.3003C18.5315 36.6039 18.0646 37.2793 18.0646 38.0645C18.0646 39.1332 18.931 39.9999 20 39.9999C20.7852 39.9999 21.4609 39.533 21.7642 38.861C21.5216 38.9706 21.2515 39.0322 20.9677 39.0322Z" fill="black"/>
<path d="M3.87085 20C3.87085 21.069 3.00446 21.9354 1.93542 21.9354C0.866394 21.9354 0 21.069 0 20C0 18.931 0.866394 18.0646 1.93542 18.0646C3.00446 18.0646 3.87085 18.931 3.87085 20Z" fill="#FFE07D"/>
<path d="M2.90314 20.9678C1.83441 20.9678 0.967712 20.1014 0.967712 19.0323C0.967712 18.7485 1.02936 18.4785 1.13892 18.2358C0.466919 18.5392 0 19.2148 0 20.0001C0 21.0691 0.866699 21.9355 1.93542 21.9355C2.72064 21.9355 3.39661 21.4689 3.69995 20.7969C3.45734 20.9064 3.18695 20.9678 2.90314 20.9678Z" fill="#FFD064"/>
<path d="M40 20C40 21.069 39.1336 21.9354 38.0646 21.9354C36.9955 21.9354 36.1292 21.069 36.1292 20C36.1292 18.931 36.9955 18.0646 38.0646 18.0646C39.1336 18.0646 40 18.931 40 20Z" fill="#FFE07D"/>
<path d="M39.0323 20.9678C37.9633 20.9678 37.0969 20.1014 37.0969 19.0323C37.0969 18.7485 37.1585 18.4785 37.2681 18.2358C36.5961 18.5392 36.1292 19.2148 36.1292 20.0001C36.1292 21.0691 36.9955 21.9355 38.0646 21.9355C38.8498 21.9355 39.5255 21.4686 39.8288 20.7966C39.5859 20.9061 39.3158 20.9678 39.0323 20.9678Z" fill="#FFD064"/>
<path d="M34.7089 7.22656C34.7089 8.29529 33.8425 9.16199 32.7734 9.16199C31.7047 9.16199 30.838 8.29529 30.838 7.22656C30.838 6.15753 31.7047 5.29114 32.7734 5.29114C33.8425 5.29114 34.7089 6.15753 34.7089 7.22656Z" fill="#FFC269"/>
<path d="M33.7412 8.19427C32.6724 8.19427 31.8057 7.32758 31.8057 6.25885C31.8057 5.97504 31.8671 5.70465 31.9769 5.46204C31.3046 5.76569 30.838 6.44104 30.838 7.22656C30.838 8.29529 31.7044 9.16199 32.7734 9.16199C33.5587 9.16199 34.2343 8.69507 34.538 8.02307C34.295 8.13263 34.025 8.19427 33.7412 8.19427Z" fill="#FFA95F"/>
<path d="M9.16199 32.7734C9.16199 33.8425 8.29529 34.7089 7.22656 34.7089C6.15753 34.7089 5.29114 33.8425 5.29114 32.7734C5.29114 31.7047 6.15753 30.838 7.22656 30.838C8.29529 30.838 9.16199 31.7047 9.16199 32.7734Z" fill="#FFC269"/>
<path d="M8.19427 33.7412C7.12524 33.7412 6.25885 32.8748 6.25885 31.8058C6.25885 31.5223 6.3205 31.2522 6.43005 31.0093C5.75806 31.3129 5.29083 31.9883 5.29083 32.7735C5.29083 33.8425 6.15753 34.7089 7.22626 34.7089C8.01178 34.7089 8.68713 34.242 8.99048 33.57C8.74786 33.6796 8.47778 33.7412 8.19427 33.7412Z" fill="#FFA95F"/>
<path d="M9.16199 7.22656C9.16199 8.29529 8.29529 9.16199 7.22656 9.16199C6.15753 9.16199 5.29114 8.29529 5.29114 7.22656C5.29114 6.15753 6.15753 5.29114 7.22656 5.29114C8.29529 5.29114 9.16199 6.15753 9.16199 7.22656Z" fill="#FFC269"/>
<path d="M8.19427 8.19427C7.12524 8.19427 6.25885 7.32758 6.25885 6.25885C6.25885 5.97504 6.32019 5.70496 6.42975 5.46204C5.75775 5.76569 5.29114 6.44104 5.29114 7.22656C5.29114 8.29529 6.15753 9.16199 7.22656 9.16199C8.01178 9.16199 8.68835 8.69232 8.9917 8.02032C8.74908 8.12988 8.47778 8.19427 8.19427 8.19427Z" fill="#FFA95F"/>
<path d="M34.7089 32.7734C34.7089 33.8425 33.8425 34.7089 32.7734 34.7089C31.7047 34.7089 30.838 33.8425 30.838 32.7734C30.838 31.7047 31.7047 30.838 32.7734 30.838C33.8425 30.838 34.7089 31.7047 34.7089 32.7734Z" fill="#FFC269"/>
<path d="M33.7412 33.7412C32.6724 33.7412 31.8057 32.8748 31.8057 31.8058C31.8057 31.5223 31.8671 31.2519 31.9769 31.0093C31.3049 31.3126 30.838 31.9883 30.838 32.7738C30.838 33.8425 31.7047 34.7092 32.7734 34.7092C33.559 34.7092 34.2343 34.2423 34.5377 33.57C34.295 33.6799 34.025 33.7412 33.7412 33.7412Z" fill="#FFA95F"/>
</g>
<defs>
<clipPath id="clip0">
<rect width="40" height="40" fill="white"/>
</clipPath>
</defs>
</svg>
