<svg width="30" height="30" viewBox="0 0 30 30" fill="none" xmlns="http://www.w3.org/2000/svg">
<path d="M16.6571 15.0008L29.6565 2.00133C30.1142 1.54365 30.1142 0.801622 29.6565 0.344006C29.1989 -0.113611 28.4568 -0.113669 27.9992 0.344006L14.9997 13.3435L2.00033 0.344006C1.54266 -0.113669 0.800628 -0.113669 0.343012 0.344006C-0.114604 0.801681 -0.114663 1.54371 0.343012 2.00133L13.3424 15.0007L0.343012 28.0002C-0.114663 28.4579 -0.114663 29.1999 0.343012 29.6575C0.57182 29.8863 0.871761 30.0007 1.1717 30.0007C1.47164 30.0007 1.77153 29.8863 2.00039 29.6575L14.9997 16.6581L27.9991 29.6575C28.228 29.8863 28.5279 30.0007 28.8278 30.0007C29.1278 30.0007 29.4277 29.8863 29.6565 29.6575C30.1142 29.1999 30.1142 28.4578 29.6565 28.0002L16.6571 15.0008Z" fill="#FA3D62"/>
</svg>
