<svg width="40" height="40" viewBox="0 0 40 40" fill="none" xmlns="http://www.w3.org/2000/svg">
<path d="M19.9713 29.4928C12.005 29.4928 5.54688 23.0347 5.54688 15.0684V14.4244C5.54688 6.45813 12.005 0 19.9713 0C27.9376 0 34.3954 6.45813 34.3954 14.4244V15.0684C34.3954 23.0347 27.9376 29.4928 19.9713 29.4928Z" fill="#57555C"/>
<path d="M19.9713 0C19.2245 0 18.4912 0.0567627 17.7753 0.166016C24.6994 1.22375 30.0037 7.20459 30.0037 14.4244V15.0684C30.0037 22.2882 24.6994 28.269 17.7753 29.3268C18.4912 29.436 19.2245 29.4928 19.9713 29.4928C27.9376 29.4928 34.3954 23.0347 34.3954 15.0684V14.4244C34.3954 6.45813 27.9376 0 19.9713 0Z" fill="#3C3B41"/>
<path d="M29.158 34.6536V39.3859C29.158 39.7241 28.8828 39.9999 28.544 39.9999H9.59442C9.25568 39.9999 8.9798 39.7241 8.9798 39.3859V34.6536C8.9798 32.5451 10.1978 30.6576 12.0529 29.7656C12.3087 29.6429 14.18 29.0518 14.2905 28.9987C14.6881 28.8073 15.0174 28.5089 15.2472 28.1442C15.4156 27.8781 15.5304 27.5765 15.5795 27.2561C15.5972 27.1407 15.6061 27.0233 15.6061 26.9036V24.7735L21.9931 23.6233V26.7422C21.9931 27.3361 22.218 27.8893 22.598 28.3062C22.8769 28.6129 23.2382 28.8467 23.6554 28.9709L23.7354 28.9953L25.2838 29.4567C25.5679 29.5413 25.8405 29.6469 26.1011 29.7729C27.948 30.6674 29.158 32.5509 29.158 34.6536Z" fill="#F0C382"/>
<path d="M18.2562 23.255H17.2696C13.5394 23.255 10.5154 20.231 10.5154 16.5009V13.2651C10.5154 9.38385 13.6618 6.23779 17.5427 6.23779H17.9831C21.8643 6.23779 25.0104 9.38385 25.0104 13.2651V16.5009C25.0104 20.231 21.9864 23.255 18.2562 23.255Z" fill="#FA3D62"/>
<path d="M21.9928 23.6233V26.3424C20.9225 27.0556 19.6384 27.47 18.2565 27.47H17.2702C16.6861 27.47 16.12 27.3959 15.5795 27.2564C15.5972 27.1411 15.6061 27.0233 15.6061 26.9036V24.7735L21.9928 23.6233Z" fill="#D3A45E"/>
<path d="M18.2562 25.6147H17.2696C13.5394 25.6147 10.5154 22.5907 10.5154 18.8602V15.6245C10.5154 11.7435 13.6618 8.59717 17.5427 8.59717H17.9831C21.8643 8.59717 25.0104 11.7435 25.0104 15.6245V18.8602C25.0104 22.5907 21.9864 25.6147 18.2562 25.6147Z" fill="#F0C382"/>
<path d="M25.3384 17.2748H25.0104V12.6511H25.3384C26.5765 12.6511 27.5803 13.6545 27.5803 14.8926V15.0333C27.5803 16.2714 26.5765 17.2748 25.3384 17.2748Z" fill="#D3A45E"/>
<path d="M14.2081 14.0262C14.2081 14.4238 13.8855 14.7464 13.4879 14.7464C13.0899 14.7464 12.7676 14.4238 12.7676 14.0262C12.7676 13.6282 13.0899 13.3057 13.4879 13.3057C13.8855 13.3057 14.2081 13.6282 14.2081 14.0262Z" fill="#57555C"/>
<path d="M19.9713 14.0262C19.9713 14.4238 19.6487 14.7464 19.2508 14.7464C18.8531 14.7464 18.5306 14.4238 18.5306 14.0262C18.5306 13.6282 18.8531 13.3057 19.2508 13.3057C19.6487 13.3057 19.9713 13.6282 19.9713 14.0262Z" fill="#57555C"/>
<path d="M16.1972 21.7517C15.5472 21.7517 15.0293 21.5701 14.7784 21.4621C14.4714 21.33 14.3298 20.9741 14.4623 20.6671C14.5944 20.3604 14.9502 20.2188 15.2572 20.351C15.513 20.4614 16.1902 20.6876 16.9516 20.4086C17.5335 20.195 17.8805 19.7864 18.0353 19.5621C18.2248 19.2868 18.6017 19.2175 18.8769 19.4074C19.1519 19.5972 19.2212 19.9738 19.0313 20.2487C18.7948 20.5918 18.2644 21.2158 17.3678 21.5445C16.9525 21.6968 16.5548 21.7517 16.1972 21.7517Z" fill="#C06100"/>
<path d="M19.0125 36.9702C18.6783 36.9702 18.4073 36.6995 18.4073 36.3654V35.127C18.4073 34.7928 18.6783 34.5221 19.0125 34.5221C19.3463 34.5221 19.6173 34.7928 19.6173 35.127V36.3654C19.6173 36.6995 19.3463 36.9702 19.0125 36.9702Z" fill="#D3A45E"/>
<path d="M26.1008 29.7729V40H12.0529V29.7656C12.3087 29.6432 12.5763 29.5398 12.8546 29.4568L13.9444 29.1324C14.0646 29.097 14.18 29.0518 14.2905 28.9987V31.6428C14.2905 34.2511 16.4035 36.3654 19.0121 36.3654C20.3159 36.3654 21.4966 35.8362 22.3523 34.982C23.2068 34.1278 23.735 32.9468 23.735 31.6428V28.9954L25.2835 29.4568C25.5676 29.5416 25.8405 29.6472 26.1008 29.7729Z" fill="#FA3D62"/>
<path d="M23.2712 39.9999H14.8288C14.8288 38.8818 15.7352 37.9751 16.8536 37.9751H21.2463C22.3648 37.9751 23.2712 38.8818 23.2712 39.9999Z" fill="#FFE1E7"/>
</svg>
