<svg width="36" height="40" viewBox="0 0 36 40" fill="none" xmlns="http://www.w3.org/2000/svg">
<path d="M32.6766 15.3843L9.0516 0.821367C7.34237 -0.2309 5.27589 -0.27465 3.52362 0.704336C1.77135 1.68317 0.72525 3.46606 0.72525 5.47317V34.4663C0.72525 37.5012 3.17057 39.9834 6.17604 39.9999C6.18425 39.9999 6.19245 39.9999 6.2005 39.9999C7.13972 39.9999 8.11847 39.7055 9.03261 39.1477C9.768 38.699 10.0004 37.7391 9.55175 37.0038C9.10308 36.2684 8.14308 36.036 7.40792 36.4847C6.98034 36.7455 6.56276 36.8804 6.19284 36.8803C5.05885 36.8741 3.84471 35.9027 3.84471 34.4664V5.47325C3.84471 4.61223 4.29346 3.84762 5.04503 3.4277C5.79667 3.00778 6.683 3.02653 7.41527 3.47739L31.0404 18.0403C31.7505 18.4775 32.1568 19.2065 32.1551 20.0404C32.1534 20.8742 31.7441 21.6015 31.0301 22.0373L13.949 32.4957C13.2143 32.9455 12.9834 33.9058 13.4332 34.6404C13.883 35.3751 14.8433 35.606 15.5779 35.1562L32.657 24.699C34.2922 23.7014 35.2708 21.9623 35.2747 20.0466C35.2786 18.1312 34.307 16.388 32.6766 15.3843Z" fill="white"/>
</svg>
