<svg width="40" height="40" viewBox="0 0 40 40" fill="none" xmlns="http://www.w3.org/2000/svg">
<path d="M3.84708 11.9058C3.84708 10.108 6.30652 8.42235 9.34035 8.42235H9.53605C17.6233 8.42235 22.3338 6.38688 24.828 4.73095C25.5672 4.24016 26.1968 4.04524 26.5769 3.68399C27.008 3.27423 27.682 3.14001 28.2985 3.45563C32.3644 5.53719 34.4536 8.53477 34.8689 11.9057H3.84708V11.9058Z" fill="#F1F2F2"/>
<path d="M28.4856 3.24345C27.869 2.92782 26.9229 3.01173 26.4918 3.42149C26.1118 3.78267 25.5669 4.24009 24.8279 4.73079C27.5054 6.65 29.224 9.27023 29.5487 11.9058H35.6623C35.2471 8.53484 32.5515 5.32493 28.4856 3.24345Z" fill="#D1D3D4"/>
<path d="M34.9283 11.6919H2.51764C2.18248 11.6919 1.91077 11.9636 1.91077 12.2988V15.918H35.5351V12.2988C35.5351 11.9636 35.2634 11.6919 34.9283 11.6919Z" fill="#FF869E"/>
<path d="M37.4229 11.6919H32.8202C33.1881 11.6919 33.4863 11.9902 33.4863 12.3581V15.918H38.089V12.3581C38.0891 11.9901 37.7909 11.6919 37.4229 11.6919Z" fill="#EA6E87"/>
<path d="M29.6675 36.9484H9.60592C4.30077 36.9484 0 32.6476 0 27.3424V17.1303C0 16.3933 0.597499 15.7959 1.33445 15.7959H37.9391C38.6762 15.7959 39.2736 16.3934 39.2736 17.1303V27.3424C39.2735 32.6476 34.9727 36.9484 29.6675 36.9484Z" fill="#FA3D62"/>
<path d="M38.5352 15.7959H33.4756C34.2846 15.7959 34.9405 16.4518 34.9405 17.2607V26.4038C34.9405 32.2274 30.2195 36.9484 24.3959 36.9484H29.4555C35.279 36.9484 40 32.2274 40 26.4038V17.2607C39.9999 16.4518 39.3441 15.7959 38.5352 15.7959Z" fill="#D12C4D"/>
<path opacity="0.8" d="M29.5973 28H10.4027C10.1804 28 10 27.7752 10 27.498V22.502C10 22.2248 10.1804 22 10.4027 22H29.5973C29.8196 22 30 22.2248 30 22.502V27.498C30 27.7752 29.8196 28 29.5973 28Z" fill="white"/>
</svg>
