<svg width="30" height="40" viewBox="0 0 30 40" fill="none" xmlns="http://www.w3.org/2000/svg">
<path d="M8.72978 1.97638C5.8894 3.95529 4.03229 7.24255 4.03229 10.9678V18.8172C4.03229 23.8595 5.96775 27.742 7.9033 30.3226H12.4194V5.70318L8.72978 1.97638Z" fill="#CA8535"/>
<path d="M27.2561 31.3465L20.5927 28.9947C19.5609 28.6306 18.8709 27.6553 18.8709 26.5612V24.9958H11.129V26.5612C11.129 27.6553 10.439 28.6306 9.40719 28.9947L2.74383 31.3465C1.19618 31.8928 0.161255 33.3556 0.161255 34.9968V38.7097C0.161255 39.4223 0.738989 40 1.45157 40H5.32251L5.88532 39.1406H25.2084L25.9677 40H28.5484C29.261 40 29.8387 39.4222 29.8387 38.7097V34.9968C29.8387 33.3556 28.8038 31.8928 27.2561 31.3465Z" fill="#F7D291"/>
<path d="M19.9336 36.0784L15.6072 38.3859C15.4174 38.487 15.2087 38.5376 15 38.5376C14.7912 38.5376 14.5826 38.487 14.3928 38.3859L10.0664 36.0784C7.91765 34.9324 5.32257 36.4895 5.32257 38.9247V40H23.3871L24.6774 38.9247C24.6774 36.4895 22.0823 34.9324 19.9336 36.0784Z" fill="#FA3D62"/>
<path d="M15 32.9032C12.5051 32.9032 10.2193 31.5372 9.03418 29.3384C8.86473 29.0247 8.98191 28.6334 9.29566 28.4642C9.61066 28.2954 10.0007 28.4132 10.1695 28.726C11.1296 30.5068 12.9807 31.6129 15 31.6129C17.0193 31.6129 18.8703 30.5068 19.8306 28.726C19.9994 28.4132 20.3888 28.2954 20.7044 28.4642C21.0181 28.6333 21.1353 29.0246 20.9659 29.3384C19.7808 31.5372 17.4949 32.9032 15 32.9032Z" fill="white"/>
<path d="M11.1291 24.9959C12.3151 25.5145 13.6228 25.8065 15.0001 25.8065C16.3773 25.8065 17.685 25.5145 18.871 24.9959V22.5807H11.129V24.9959H11.1291Z" fill="#F0C382"/>
<path d="M23.3871 40C23.3871 34.8387 18.871 32.7936 18.871 27.0968V26.4516V12.9032L25.9678 13.4941V40H23.3871Z" fill="#AC712D"/>
<path d="M16.2903 31.6129C16.2903 32.5174 15.6562 33.739 15.2771 34.3886C15.1527 34.6018 14.8474 34.6018 14.723 34.3886C14.3438 33.739 13.7098 32.5174 13.7098 31.6129C13.7098 30.9002 14.2875 30.3226 15.0001 30.3226C15.7127 30.3226 16.2903 30.9003 16.2903 31.6129Z" fill="#FA3D62"/>
<path d="M25.3142 14.995C25.3084 14.9376 25.2995 14.8813 25.2876 14.8262L23.4115 13.6915C22.6988 13.6915 22.0968 12.9708 22.0968 12.2582V11.5105C22.0968 9.72896 20.6526 8.28467 18.8709 8.28467H11.129C9.34741 8.28467 8.54929 9.72888 8.54929 11.5105V12.2582C8.54929 12.9708 7.97155 13.5485 7.25897 13.5485L7.29163 16.7743C7.6221 21.1039 10.5857 24.4402 15 24.4402C15.4417 24.4402 15.8755 24.4821 16.2986 24.4162C20.1039 23.8241 23.0571 20.6706 23.3545 16.7743H23.7098C24.6554 16.7742 25.4109 15.9604 25.3142 14.995Z" fill="#FFE1A0"/>
<path d="M11.129 9.03232C11.3173 9.03232 11.4953 9.11107 11.6251 9.24731C14.9519 12.7376 19.6121 14.8387 24.6774 14.8387C24.8697 14.8387 25.0794 14.8341 25.2876 14.8261C25.1232 14.0771 24.4024 13.5157 23.6176 13.5157L23.3871 13.4766C22.6744 13.4766 22.0968 12.9707 22.0968 12.2581V7.742H11.129C9.34741 7.742 7.90319 9.18622 7.90319 10.9678V12.2581C7.90319 12.9707 7.32545 13.5484 6.61288 13.5484H6.37413C5.53045 13.5484 4.76155 14.1554 4.67749 14.995C4.58077 15.9604 5.33631 16.7743 6.28202 16.7743H6.64561C6.97608 21.1039 10.5858 24.5162 15.0001 24.5162C15.4415 24.5162 15.8759 24.4819 16.2987 24.4162C12.2789 23.7958 9.19374 20.3226 9.19374 16.1291L9.19366 10.9678C9.1935 9.89888 10.0601 9.03232 11.129 9.03232Z" fill="#F7D291"/>
<path d="M9.83869 12.9035C9.56837 12.9035 9.31705 12.7324 9.22689 12.4622C9.11408 12.1241 9.29681 11.7587 9.63455 11.6459L11.57 11.0008C11.9115 10.8867 12.2731 11.071 12.386 11.4087C12.4988 11.7468 12.316 12.1122 11.9783 12.225L10.0428 12.8701C9.97478 12.8928 9.90611 12.9035 9.83869 12.9035Z" fill="#F0C382"/>
<path d="M11.1291 15.4839C10.7725 15.4839 10.4839 15.195 10.4839 14.8388V14.1936C10.4839 13.8374 10.7725 13.5485 11.1291 13.5485C11.4857 13.5485 11.7743 13.8374 11.7743 14.1936V14.8388C11.7743 15.195 11.4857 15.4839 11.1291 15.4839Z" fill="#C38C66"/>
<path d="M18.8709 15.4839C18.5142 15.4839 18.2257 15.195 18.2257 14.8388V14.1936C18.2257 13.8374 18.5143 13.5485 18.8709 13.5485C19.2275 13.5485 19.516 13.8374 19.516 14.1936V14.8388C19.516 15.195 19.2275 15.4839 18.8709 15.4839Z" fill="#C38C66"/>
<path d="M12.8711 18.0084C12.431 18.0084 12.097 18.4477 12.2576 18.8574C12.6526 19.8656 13.7313 20.589 15.0001 20.589C16.2688 20.589 17.3475 19.8656 17.7425 18.8574C17.903 18.4477 17.5691 18.0084 17.129 18.0084H12.8711Z" fill="white"/>
<path d="M11.0492 0.73761C10.2233 1.05823 9.4456 1.47605 8.72974 1.9762C10.9195 8.69292 17.2298 13.5483 24.6774 13.5483C25.112 13.5483 25.5414 13.5265 25.9677 13.494V10.9069L11.0492 0.73761Z" fill="#CA8535"/>
<path d="M24.6774 10.9677C25.118 10.9659 25.9677 10.9074 25.9677 10.907C25.9341 4.87844 21.0365 0 15 0C13.6057 0 12.2748 0.261719 11.0492 0.737656C12.7667 6.64422 18.2168 10.9937 24.6774 10.9677Z" fill="#AC712D"/>
</svg>
