<svg width="30" height="30" viewBox="0 0 30 30" fill="none" xmlns="http://www.w3.org/2000/svg">
<path d="M14.9414 23.2031C9.55078 23.2031 7.04224 18.6797 6.93787 18.4872C6.63002 17.918 6.84196 17.2069 7.41119 16.8988C7.98065 16.591 8.69156 16.8029 8.9994 17.3721C9.00192 17.3767 9.50706 18.2801 10.5119 19.1586C11.8027 20.2872 13.293 20.8594 14.9414 20.8594C18.9507 20.8594 20.8644 17.4069 20.8832 17.3721C21.1913 16.8029 21.9024 16.591 22.4716 16.899C23.0408 17.2069 23.2528 17.918 22.9447 18.4872C22.8406 18.6797 20.332 23.2031 14.9414 23.2031ZM22.7614 27.8382C23.315 27.5029 23.492 26.7824 23.1567 26.2287C22.8214 25.6753 22.1006 25.4984 21.5472 25.8337C19.5788 27.0259 17.3147 27.6562 15 27.6562C8.02139 27.6562 2.34375 21.9786 2.34375 15C2.34375 8.02139 8.02139 2.34375 15 2.34375C21.9786 2.34375 27.6562 8.02139 27.6562 15C27.6562 17.4955 26.9142 19.9244 25.5103 22.0244C25.1505 22.5625 25.2951 23.2903 25.833 23.6499C26.3713 24.0097 27.0989 23.8651 27.4585 23.327C29.1213 20.8404 30 17.9608 30 15C30 10.9934 28.4397 7.22649 25.6066 4.39339C22.7735 1.56029 19.0066 0 15 0C10.9934 0 7.22649 1.56029 4.39339 4.39339C1.56029 7.22649 0 10.9934 0 15C0 19.0066 1.56029 22.7735 4.39339 25.6066C7.22649 28.4397 10.9934 30 15 30C17.7429 30 20.4268 29.2525 22.7614 27.8382ZM23.1445 12.1875C23.1445 10.5721 21.8303 9.25781 20.2148 9.25781C18.5994 9.25781 17.2852 10.5721 17.2852 12.1875C17.2852 12.8348 17.8098 13.3594 18.457 13.3594C19.1043 13.3594 19.6289 12.8348 19.6289 12.1875C19.6289 11.8643 19.8917 11.6016 20.2148 11.6016C20.538 11.6016 20.8008 11.8643 20.8008 12.1875C20.8008 12.8348 21.3254 13.3594 21.9727 13.3594C22.6199 13.3594 23.1445 12.8348 23.1445 12.1875ZM12.7734 12.1875C12.7734 10.5721 11.4592 9.25781 9.84375 9.25781C8.2283 9.25781 6.91406 10.5721 6.91406 12.1875C6.91406 12.8348 7.43866 13.3594 8.08594 13.3594C8.73322 13.3594 9.25781 12.8348 9.25781 12.1875C9.25781 11.8643 9.52057 11.6016 9.84375 11.6016C10.1669 11.6016 10.4297 11.8643 10.4297 12.1875C10.4297 12.8348 10.9543 13.3594 11.6016 13.3594C12.2488 13.3594 12.7734 12.8348 12.7734 12.1875Z" fill="#FA3D62"/>
</svg>
