<svg width="40" height="40" viewBox="0 0 40 40" fill="none" xmlns="http://www.w3.org/2000/svg">
<g clip-path="url(#clip0)">
<path d="M7.05933 9.40552H0.589294C0.263672 9.40552 0 9.66949 0 9.99481V30.0513C0 30.3766 0.263672 30.6406 0.589294 30.6406H7.05933C7.38495 30.6406 7.64862 30.3766 7.64862 30.0513V9.99481C7.64862 9.66949 7.38495 9.40552 7.05933 9.40552Z" fill="#F9E075"/>
<path d="M13.5297 9.40552H7.05933C6.73401 9.40552 6.47034 9.66949 6.47034 9.99481V30.0513C6.47034 30.3766 6.73401 30.6406 7.05933 30.6406H13.5297C13.8553 30.6406 14.119 30.3766 14.119 30.0513V9.99481C14.119 9.66949 13.8553 9.40552 13.5297 9.40552Z" fill="#F9CD45"/>
<path d="M20 9.40552H13.5297C13.2043 9.40552 12.9407 9.66949 12.9407 9.99481V30.0513C12.9407 30.3766 13.2043 30.6406 13.5297 30.6406H20C20.3253 30.6406 20.5893 30.3766 20.5893 30.0513V9.99481C20.5893 9.66949 20.3253 9.40552 20 9.40552Z" fill="#F8B53C"/>
<path d="M26.4703 9.40552H20C19.6744 9.40552 19.4107 9.66949 19.4107 9.99481V30.0513C19.4107 30.3766 19.6744 30.6406 20 30.6406H26.4703C26.7957 30.6406 27.0593 30.3766 27.0593 30.0513V9.99481C27.0593 9.66949 26.7957 9.40552 26.4703 9.40552Z" fill="#FF9F4D"/>
<path d="M32.9407 9.40552H26.4703C26.1447 9.40552 25.881 9.66949 25.881 9.99481V30.0513C25.881 30.3766 26.1447 30.6406 26.4703 30.6406H32.9407C33.266 30.6406 33.5297 30.3766 33.5297 30.0513V9.99481C33.5297 9.66949 33.266 9.40552 32.9407 9.40552Z" fill="#FB900D"/>
<path d="M39.4107 9.40552H32.9407C32.6151 9.40552 32.3514 9.66949 32.3514 9.99481V30.0513C32.3514 30.3766 32.6151 30.6406 32.9407 30.6406H39.4107C39.7363 30.6406 40 30.3766 40 30.0513V9.99481C40 9.66949 39.7363 9.40552 39.4107 9.40552Z" fill="#F85E49"/>
<path d="M39.4107 9.40552H37.5253C37.851 9.40552 38.1146 9.66949 38.1146 9.99481V30.0513C38.1146 30.3766 37.851 30.6406 37.5253 30.6406H39.4107C39.7363 30.6406 40 30.3766 40 30.0513V9.99481C40 9.66949 39.7363 9.40552 39.4107 9.40552Z" fill="#BA4737"/>
<path d="M35.6479 3.58704C35.5447 3.39844 35.3464 3.28125 35.1315 3.28125H30.4941C30.2789 3.28125 30.0809 3.39844 29.9774 3.58704C29.9289 3.67554 29.9048 3.77319 29.9048 3.87054C29.9048 3.98071 29.9359 4.09088 29.9973 4.18732L32.316 7.82257C32.4243 7.99225 32.6117 8.09509 32.8128 8.09509C33.0139 8.09509 33.2013 7.99225 33.3096 7.82257L35.6284 4.18732C35.6897 4.09088 35.7208 3.98071 35.7208 3.87054C35.7205 3.77319 35.6964 3.67554 35.6479 3.58704Z" fill="#D0CFD1"/>
<path d="M35.6479 3.58704C35.5447 3.39844 35.3464 3.28125 35.1315 3.28125H33.3246C33.5397 3.28125 33.7378 3.39844 33.8412 3.58704C33.8898 3.67554 33.9139 3.77319 33.9139 3.87054C33.9139 3.98071 33.8828 4.09088 33.8214 4.18732L31.9092 7.18506L32.316 7.82257C32.4243 7.99225 32.6114 8.09509 32.8128 8.09509C33.0139 8.09509 33.2013 7.99225 33.3093 7.82257L35.6281 4.18732C35.6897 4.09088 35.7205 3.98071 35.7205 3.87054C35.7205 3.77319 35.6964 3.67554 35.6479 3.58704Z" fill="#B0AFB1"/>
<path d="M9.86053 35.7846L7.54181 32.1494C7.43378 31.9797 7.2464 31.8768 7.04498 31.8768C6.84387 31.8768 6.65649 31.9797 6.54846 32.1494L4.22974 35.7846C4.16809 35.881 4.13727 35.9912 4.13727 36.1014C4.13727 36.1987 4.16138 36.2964 4.2099 36.3846C4.31305 36.5735 4.51141 36.6907 4.72626 36.6907H9.36371C9.57886 36.6907 9.77692 36.5735 9.88037 36.3846C9.92889 36.2964 9.953 36.1987 9.953 36.1014C9.953 35.9912 9.92188 35.881 9.86053 35.7846Z" fill="#D0CFD1"/>
<path d="M9.86053 35.7846L7.54181 32.1494C7.43378 31.9797 7.2464 31.8768 7.04498 31.8768C6.84387 31.8768 6.65649 31.9797 6.54846 32.1494L6.10229 32.8485L7.97516 35.7846C8.0365 35.881 8.06763 35.9912 8.06763 36.1014C8.06763 36.1987 8.04352 36.2964 7.995 36.3846C7.89154 36.5732 7.69348 36.6907 7.47833 36.6907H9.36371C9.57886 36.6907 9.77692 36.5732 9.88037 36.3846C9.92889 36.2961 9.953 36.1987 9.953 36.1014C9.953 35.9912 9.92188 35.881 9.86053 35.7846Z" fill="#B0AFB1"/>
</g>
<defs>
<clipPath id="clip0">
<rect width="40" height="40" fill="white"/>
</clipPath>
</defs>
</svg>
