<svg xmlns="http://www.w3.org/2000/svg">
  <symbol id="icon-cross" width="30" height="30" viewBox="0 0 30 30" fill="none" xmlns="http://www.w3.org/2000/svg">
    <path d="M16.6571 15.0008L29.6565 2.00133C30.1142 1.54365 30.1142 0.801622 29.6565 0.344006C29.1989 -0.113611 28.4568 -0.113669 27.9992 0.344006L14.9997 13.3435L2.00033 0.344006C1.54266 -0.113669 0.800628 -0.113669 0.343012 0.344006C-0.114604 0.801681 -0.114663 1.54371 0.343012 2.00133L13.3424 15.0007L0.343012 28.0002C-0.114663 28.4579 -0.114663 29.1999 0.343012 29.6575C0.57182 29.8863 0.871761 30.0007 1.1717 30.0007C1.47164 30.0007 1.77153 29.8863 2.00039 29.6575L14.9997 16.6581L27.9991 29.6575C28.228 29.8863 28.5279 30.0007 28.8278 30.0007C29.1278 30.0007 29.4277 29.8863 29.6565 29.6575C30.1142 29.1999 30.1142 28.4578 29.6565 28.0002L16.6571 15.0008Z" fill="#FA3D62"/>
  </symbol>

  <symbol id="icon-whatsup" width="17" height="17" viewBox="0 0 17 17" fill="none" xmlns="http://www.w3.org/2000/svg">
    <path d="M13.9451 3.04687C12.4634 1.57031 10.4878 0.75 8.40244 0.75C4.06707 0.75 0.554877 4.25 0.554877 8.57031C0.554877 9.9375 0.939024 11.3047 1.59756 12.4531L0.5 16.5L4.67073 15.4062C5.82317 16.0078 7.08536 16.3359 8.40244 16.3359C12.7378 16.3359 16.25 12.8359 16.25 8.51563C16.1951 6.49219 15.4268 4.52344 13.9451 3.04687ZM12.189 11.3594C12.0244 11.7969 11.2561 12.2344 10.872 12.2891C10.5427 12.3437 10.1037 12.3438 9.66463 12.2344C9.39024 12.125 9.0061 12.0156 8.56707 11.7969C6.59146 10.9766 5.32927 9.00781 5.21951 8.84375C5.10976 8.73437 4.39634 7.80469 4.39634 6.82031C4.39634 5.83594 4.89024 5.39844 5.05488 5.17969C5.21951 4.96094 5.43902 4.96094 5.60366 4.96094C5.71341 4.96094 5.87805 4.96094 5.9878 4.96094C6.09756 4.96094 6.26219 4.90625 6.42683 5.28906C6.59146 5.67187 6.97561 6.65625 7.03049 6.71094C7.08536 6.82031 7.08536 6.92969 7.03049 7.03906C6.97561 7.14844 6.92073 7.25781 6.81097 7.36719C6.70122 7.47656 6.59146 7.64062 6.53658 7.69531C6.42683 7.80469 6.31707 7.91406 6.42683 8.07812C6.53659 8.29687 6.92073 8.89844 7.52439 9.44531C8.29268 10.1016 8.89634 10.3203 9.11585 10.4297C9.33537 10.5391 9.44512 10.4844 9.55488 10.375C9.66463 10.2656 10.0488 9.82812 10.1585 9.60938C10.2683 9.39062 10.4329 9.44531 10.5976 9.5C10.7622 9.55469 11.75 10.0469 11.9146 10.1562C12.1341 10.2656 12.2439 10.3203 12.2988 10.375C12.3537 10.5391 12.3537 10.9219 12.189 11.3594Z" fill="white"/>
  </symbol>

  <symbol id="icon-instagram" width="30" height="30" viewBox="0 0 30 30" fill="none" xmlns="http://www.w3.org/2000/svg">
    <circle cx="15" cy="15" r="15" fill="url(#paint0_linear)"/>
      <path d="M19.9356 9H10.8144C9.78461 9 9 9.78462 9 10.8144V19.9356C9 20.9654 9.78461 21.75 10.8144 21.75H19.9356C20.9654 21.75 21.75 20.9654 21.75 19.9356V10.8144C21.75 9.78462 20.9654 9 19.9356 9ZM15.375 19.2C17.4837 19.2 19.2 17.5327 19.2 15.5221C19.2 15.1788 19.151 14.7865 19.0529 14.4923H20.1317V19.6904C20.1317 19.9356 19.9356 20.1808 19.6413 20.1808H11.1087C10.8635 20.1808 10.6183 19.9846 10.6183 19.6904V14.4433H11.7462C11.6481 14.7865 11.599 15.1298 11.599 15.4731C11.55 17.5327 13.2663 19.2 15.375 19.2ZM15.375 17.7288C14.0019 17.7288 12.9231 16.65 12.9231 15.326C12.9231 14.0019 14.0019 12.9231 15.375 12.9231C16.7481 12.9231 17.8269 14.0019 17.8269 15.326C17.8269 16.699 16.7481 17.7288 15.375 17.7288ZM20.0827 12.4817C20.0827 12.776 19.8375 13.0212 19.5433 13.0212H18.1702C17.876 13.0212 17.6308 12.776 17.6308 12.4817V11.1577C17.6308 10.8635 17.876 10.6183 18.1702 10.6183H19.5433C19.8375 10.6183 20.0827 10.8635 20.0827 11.1577V12.4817Z" fill="white"/>
    <defs>
      <linearGradient id="paint0_linear" x1="6.375" y1="26.625" x2="26.25" y2="6" gradientUnits="userSpaceOnUse">
      <stop stop-color="#EEA054"/>
      <stop offset="0.502762" stop-color="#D64763"/>
      <stop offset="1" stop-color="#B62A99"/>
      </linearGradient>
    </defs>
  </symbol>

  <symbol id="icon-video" width="36" height="40" viewBox="0 0 36 40" fill="none" xmlns="http://www.w3.org/2000/svg">
    <path d="M32.6766 15.3843L9.0516 0.821367C7.34237 -0.2309 5.27589 -0.27465 3.52362 0.704336C1.77135 1.68317 0.72525 3.46606 0.72525 5.47317V34.4663C0.72525 37.5012 3.17057 39.9834 6.17604 39.9999C6.18425 39.9999 6.19245 39.9999 6.2005 39.9999C7.13972 39.9999 8.11847 39.7055 9.03261 39.1477C9.768 38.699 10.0004 37.7391 9.55175 37.0038C9.10308 36.2684 8.14308 36.036 7.40792 36.4847C6.98034 36.7455 6.56276 36.8804 6.19284 36.8803C5.05885 36.8741 3.84471 35.9027 3.84471 34.4664V5.47325C3.84471 4.61223 4.29346 3.84762 5.04503 3.4277C5.79667 3.00778 6.683 3.02653 7.41527 3.47739L31.0404 18.0403C31.7505 18.4775 32.1568 19.2065 32.1551 20.0404C32.1534 20.8742 31.7441 21.6015 31.0301 22.0373L13.949 32.4957C13.2143 32.9455 12.9834 33.9058 13.4332 34.6404C13.883 35.3751 14.8433 35.606 15.5779 35.1562L32.657 24.699C34.2922 23.7014 35.2708 21.9623 35.2747 20.0466C35.2786 18.1312 34.307 16.388 32.6766 15.3843Z" fill="currentColor"/>
  </symbol>


  <symbol id="icon-info" width="24" height="24" viewBox="0 0 24 24" fill="none" xmlns="http://www.w3.org/2000/svg">
    <path d="M0.937734 24C0.698812 24 0.463547 23.9087 0.285 23.7356C0.0110156 23.47 -0.074625 23.0648 0.0683906 22.7111L2.19703 17.4455C0.757594 15.5744 0 13.3793 0 11.0625C0 8.0918 1.25883 5.30358 3.54469 3.21145C5.80739 1.14052 8.81025 0 12 0C15.1897 0 18.1926 1.14052 20.4553 3.21145C22.7412 5.30358 24 8.0918 24 11.0625C24 13.1929 23.3419 15.2614 22.0968 17.0445C21.8003 17.469 21.2159 17.5728 20.7914 17.2763C20.3668 16.9799 20.263 16.3955 20.5595 15.9709C21.5837 14.5043 22.125 12.807 22.125 11.0625C22.125 5.99648 17.583 1.875 12 1.875C6.41705 1.875 1.875 5.99648 1.875 11.0625C1.875 13.1148 2.60517 15.0563 3.98653 16.6769C4.21312 16.9427 4.27317 17.3125 4.1422 17.6364L2.67192 21.2734L6.95372 19.3859C7.19105 19.2813 7.46119 19.2796 7.69978 19.3815C9.05072 19.9578 10.4975 20.25 12 20.25C13.7293 20.25 15.4359 19.8475 16.9353 19.086C17.397 18.8516 17.9612 19.0357 18.1957 19.4973C18.4301 19.959 18.246 20.5233 17.7844 20.7577C16.0232 21.6522 14.023 22.125 12 22.125C10.3837 22.125 8.82023 21.8348 7.34644 21.2619L1.31569 23.9204C1.19409 23.9739 1.06537 24 0.937734 24ZM12.9375 15.2344V10.1719C12.9375 9.65409 12.5178 9.23438 12 9.23438C11.4822 9.23438 11.0625 9.65409 11.0625 10.1719V15.2344C11.0625 15.7522 11.4822 16.1719 12 16.1719C12.5178 16.1719 12.9375 15.7522 12.9375 15.2344ZM12 6C11.4822 6 11.0625 6.41972 11.0625 6.9375C11.0625 7.45528 11.4822 7.875 12 7.875C12.5178 7.875 12.9375 7.45528 12.9375 6.9375C12.9375 6.41972 12.5178 6 12 6Z" fill="#FA3D62"/>
  </symbol>

  <symbol id="icon-user"  width="10" height="10" viewBox="0 0 10 10" fill="none" xmlns="http://www.w3.org/2000/svg">
    <path d="M9.20677 6.34789C8.87535 6.05667 8.47343 5.80505 8.01208 5.60005C7.81487 5.51247 7.58408 5.60127 7.49649 5.79842C7.40891 5.99556 7.49771 6.22635 7.69485 6.31401C8.08388 6.48689 8.41911 6.69571 8.6911 6.93474C9.02641 7.22939 9.21875 7.65602 9.21875 8.10547V8.82812C9.21875 9.0435 9.0435 9.21875 8.82812 9.21875H1.17188C0.956497 9.21875 0.78125 9.0435 0.78125 8.82812V8.10547C0.78125 7.65602 0.973587 7.22939 1.3089 6.93474C1.70357 6.58791 2.85347 5.78125 5 5.78125C6.59386 5.78125 7.89062 4.48448 7.89062 2.89062C7.89062 1.29677 6.59386 0 5 0C3.40614 0 2.10938 1.29677 2.10938 2.89062C2.10938 3.8224 2.55264 4.65248 3.23929 5.18143C1.98288 5.45761 1.20132 5.98923 0.793228 6.34789C0.289154 6.79077 0 7.43134 0 8.10547V8.82812C0 9.47433 0.525665 10 1.17188 10H8.82812C9.47433 10 10 9.47433 10 8.82812V8.10547C10 7.43134 9.71085 6.79077 9.20677 6.34789ZM2.89062 2.89062C2.89062 1.72752 3.8369 0.78125 5 0.78125C6.1631 0.78125 7.10938 1.72752 7.10938 2.89062C7.10938 4.05373 6.1631 5 5 5C3.8369 5 2.89062 4.05373 2.89062 2.89062Z" fill="currentColor"/>
  </symbol>


  <symbol id="icon-clients" width="30" height="30" viewBox="0 0 30 30" fill="none" xmlns="http://www.w3.org/2000/svg">
    <path d="M14.9414 23.2031C9.55078 23.2031 7.04224 18.6797 6.93787 18.4872C6.63002 17.918 6.84196 17.2069 7.41119 16.8988C7.98065 16.591 8.69156 16.8029 8.9994 17.3721C9.00192 17.3767 9.50706 18.2801 10.5119 19.1586C11.8027 20.2872 13.293 20.8594 14.9414 20.8594C18.9507 20.8594 20.8644 17.4069 20.8832 17.3721C21.1913 16.8029 21.9024 16.591 22.4716 16.899C23.0408 17.2069 23.2528 17.918 22.9447 18.4872C22.8406 18.6797 20.332 23.2031 14.9414 23.2031ZM22.7614 27.8382C23.315 27.5029 23.492 26.7824 23.1567 26.2287C22.8214 25.6753 22.1006 25.4984 21.5472 25.8337C19.5788 27.0259 17.3147 27.6562 15 27.6562C8.02139 27.6562 2.34375 21.9786 2.34375 15C2.34375 8.02139 8.02139 2.34375 15 2.34375C21.9786 2.34375 27.6562 8.02139 27.6562 15C27.6562 17.4955 26.9142 19.9244 25.5103 22.0244C25.1505 22.5625 25.2951 23.2903 25.833 23.6499C26.3713 24.0097 27.0989 23.8651 27.4585 23.327C29.1213 20.8404 30 17.9608 30 15C30 10.9934 28.4397 7.22649 25.6066 4.39339C22.7735 1.56029 19.0066 0 15 0C10.9934 0 7.22649 1.56029 4.39339 4.39339C1.56029 7.22649 0 10.9934 0 15C0 19.0066 1.56029 22.7735 4.39339 25.6066C7.22649 28.4397 10.9934 30 15 30C17.7429 30 20.4268 29.2525 22.7614 27.8382ZM23.1445 12.1875C23.1445 10.5721 21.8303 9.25781 20.2148 9.25781C18.5994 9.25781 17.2852 10.5721 17.2852 12.1875C17.2852 12.8348 17.8098 13.3594 18.457 13.3594C19.1043 13.3594 19.6289 12.8348 19.6289 12.1875C19.6289 11.8643 19.8917 11.6016 20.2148 11.6016C20.538 11.6016 20.8008 11.8643 20.8008 12.1875C20.8008 12.8348 21.3254 13.3594 21.9727 13.3594C22.6199 13.3594 23.1445 12.8348 23.1445 12.1875ZM12.7734 12.1875C12.7734 10.5721 11.4592 9.25781 9.84375 9.25781C8.2283 9.25781 6.91406 10.5721 6.91406 12.1875C6.91406 12.8348 7.43866 13.3594 8.08594 13.3594C8.73322 13.3594 9.25781 12.8348 9.25781 12.1875C9.25781 11.8643 9.52057 11.6016 9.84375 11.6016C10.1669 11.6016 10.4297 11.8643 10.4297 12.1875C10.4297 12.8348 10.9543 13.3594 11.6016 13.3594C12.2488 13.3594 12.7734 12.8348 12.7734 12.1875Z" fill="#FA3D62"/>
  </symbol>

  <symbol id="icon-studying" width="26" height="30" viewBox="0 0 26 30" fill="none" xmlns="http://www.w3.org/2000/svg">
    <path d="M25.4723 26.1875C25.3407 25.5539 24.7204 25.1466 24.0867 25.2783C23.453 25.4099 23.0459 26.0303 23.1775 26.664C23.2289 26.9119 23.1661 27.1676 23.005 27.3655C22.9167 27.4741 22.7215 27.6562 22.4071 27.6562H14.6249L17.7894 19.5642C18.9417 20.1613 19.9839 20.9753 20.8528 21.9782C21.2766 22.4674 22.0167 22.5203 22.5059 22.0966C22.995 21.6728 23.048 20.9327 22.6242 20.4435C21.1853 18.7827 19.3594 17.5439 17.3365 16.8131C18.8041 15.5761 19.7383 13.7253 19.7383 11.6601C19.7383 10.447 19.4197 9.28372 18.8228 8.26436L22.4336 6.93393V12.7149C22.4336 13.3621 22.9583 13.8867 23.6055 13.8867C24.2527 13.8867 24.7774 13.3621 24.7774 12.7149V5.33204C24.7774 5.3205 24.776 5.30925 24.7756 5.29776C24.7762 5.28294 24.7774 5.26817 24.7774 5.25323V5.18731C24.7774 4.70063 24.4765 4.26458 24.0216 4.09179L13.4492 0.0763563C13.1823 -0.0250109 12.8876 -0.0254796 12.6203 0.0751259L1.98164 4.07966C1.52496 4.25157 1.22262 4.68845 1.22262 5.17641V5.24233C1.22262 5.73434 1.52994 6.17397 1.99201 6.34296L7.18928 8.24345C6.58448 9.26743 6.26162 10.4379 6.26162 11.6602C6.26162 13.7276 7.19789 15.5803 8.6683 16.8173C7.3108 17.3091 6.03662 18.0308 4.91057 18.9597C2.67176 20.8066 1.11522 23.3825 0.527581 26.2132C0.333518 27.148 0.566897 28.1078 1.16795 28.8464C1.76455 29.5795 2.64838 30 3.5928 30H22.4071C23.345 30 24.2256 29.579 24.823 28.8448C25.431 28.0975 25.6677 27.129 25.4723 26.1875ZM5.67451 5.19393L13.0313 2.42474L20.3492 5.20419L17.0524 6.41895C15.9007 5.88405 14.1107 5.78784 13.0129 5.78538C11.9148 5.78169 10.1234 5.87046 8.97135 6.3995L5.67451 5.19393ZM8.60543 11.6602C8.60543 10.4827 9.06475 9.37893 9.89848 8.54813C10.1248 8.40991 11.1656 8.12907 12.9688 8.12907C12.9825 8.12907 12.9964 8.12907 13.0102 8.12907C14.84 8.13341 15.8923 8.42374 16.118 8.56442C16.9411 9.39323 17.3945 10.4913 17.3945 11.6601C17.3945 14.0833 15.4231 16.0546 13 16.0546C10.5768 16.0546 8.60543 14.0833 8.60543 11.6602ZM3.5928 27.6563C3.26948 27.6563 3.07377 27.4751 2.98594 27.3671C2.89547 27.2559 2.75391 27.02 2.82246 26.6896C3.47221 23.5597 5.51561 20.9893 8.21573 19.5775L11.375 27.6563H3.5928ZM10.4019 18.7325C11.2368 18.5145 12.108 18.3984 13 18.3984C13.8864 18.3984 14.759 18.5117 15.5997 18.7282L13 25.3761L10.4019 18.7325Z" fill="#FA3D62"/>
  </symbol>

  <symbol id="icon-arrow-right" width="8" height="12" viewBox="0 0 8 12" fill="none" xmlns="http://www.w3.org/2000/svg">
    <path d="M6.62404 5.00598L1.76582 0.137634C1.58292 -0.0456238 1.28613 -0.045905 1.10292 0.136954C0.919659 0.319814 0.919354 0.616603 1.10221 0.799861L5.96078 5.66856C6.14355 5.85132 6.14355 6.1487 5.96043 6.33181L1.10221 11.2002C0.919354 11.3834 0.919659 11.6802 1.10292 11.8631C1.19439 11.9544 1.31423 12 1.43402 12C1.55414 12 1.67425 11.9541 1.76582 11.8624L6.62369 6.99437C7.17199 6.44607 7.17199 5.55392 6.62404 5.00598Z" fill="#FA3D62"/>
  </symbol>

  <svg id="icon-arrow-down" width="12" height="8" viewBox="0 0 12 8" fill="none" xmlns="http://www.w3.org/2000/svg">
    <path d="M6.99402 6.6241L11.8624 1.76588C12.0456 1.58298 12.0459 1.28619 11.863 1.10298C11.6802 0.91972 11.3834 0.919415 11.2001 1.10227L6.33144 5.96085C6.14868 6.14361 5.8513 6.14361 5.66819 5.96049L0.799844 1.10227C0.616586 0.919415 0.319796 0.919719 0.136936 1.10298C0.0456238 1.19445 -7.64465e-06 1.31429 -7.64988e-06 1.43408C-7.65513e-06 1.5542 0.0458822 1.67431 0.13764 1.76588L5.00563 6.62375C5.55393 7.17205 6.44608 7.17205 6.99402 6.6241Z" fill="#FA3D62"/>
  </svg>

</svg>
