<svg width="26" height="30" viewBox="0 0 26 30" fill="none" xmlns="http://www.w3.org/2000/svg">
<path d="M25.4723 26.1875C25.3407 25.5539 24.7204 25.1466 24.0867 25.2783C23.453 25.4099 23.0459 26.0303 23.1775 26.664C23.2289 26.9119 23.1661 27.1676 23.005 27.3655C22.9167 27.4741 22.7215 27.6562 22.4071 27.6562H14.6249L17.7894 19.5642C18.9417 20.1613 19.9839 20.9753 20.8528 21.9782C21.2766 22.4674 22.0167 22.5203 22.5059 22.0966C22.995 21.6728 23.048 20.9327 22.6242 20.4435C21.1853 18.7827 19.3594 17.5439 17.3365 16.8131C18.8041 15.5761 19.7383 13.7253 19.7383 11.6601C19.7383 10.447 19.4197 9.28372 18.8228 8.26436L22.4336 6.93393V12.7149C22.4336 13.3621 22.9583 13.8867 23.6055 13.8867C24.2527 13.8867 24.7774 13.3621 24.7774 12.7149V5.33204C24.7774 5.3205 24.776 5.30925 24.7756 5.29776C24.7762 5.28294 24.7774 5.26817 24.7774 5.25323V5.18731C24.7774 4.70063 24.4765 4.26458 24.0216 4.09179L13.4492 0.0763563C13.1823 -0.0250109 12.8876 -0.0254796 12.6203 0.0751259L1.98164 4.07966C1.52496 4.25157 1.22262 4.68845 1.22262 5.17641V5.24233C1.22262 5.73434 1.52994 6.17397 1.99201 6.34296L7.18928 8.24345C6.58448 9.26743 6.26162 10.4379 6.26162 11.6602C6.26162 13.7276 7.19789 15.5803 8.6683 16.8173C7.3108 17.3091 6.03662 18.0308 4.91057 18.9597C2.67176 20.8066 1.11522 23.3825 0.527581 26.2132C0.333518 27.148 0.566897 28.1078 1.16795 28.8464C1.76455 29.5795 2.64838 30 3.5928 30H22.4071C23.345 30 24.2256 29.579 24.823 28.8448C25.431 28.0975 25.6677 27.129 25.4723 26.1875ZM5.67451 5.19393L13.0313 2.42474L20.3492 5.20419L17.0524 6.41895C15.9007 5.88405 14.1107 5.78784 13.0129 5.78538C11.9148 5.78169 10.1234 5.87046 8.97135 6.3995L5.67451 5.19393ZM8.60543 11.6602C8.60543 10.4827 9.06475 9.37893 9.89848 8.54813C10.1248 8.40991 11.1656 8.12907 12.9688 8.12907C12.9825 8.12907 12.9964 8.12907 13.0102 8.12907C14.84 8.13341 15.8923 8.42374 16.118 8.56442C16.9411 9.39323 17.3945 10.4913 17.3945 11.6601C17.3945 14.0833 15.4231 16.0546 13 16.0546C10.5768 16.0546 8.60543 14.0833 8.60543 11.6602ZM3.5928 27.6563C3.26948 27.6563 3.07377 27.4751 2.98594 27.3671C2.89547 27.2559 2.75391 27.02 2.82246 26.6896C3.47221 23.5597 5.51561 20.9893 8.21573 19.5775L11.375 27.6563H3.5928ZM10.4019 18.7325C11.2368 18.5145 12.108 18.3984 13 18.3984C13.8864 18.3984 14.759 18.5117 15.5997 18.7282L13 25.3761L10.4019 18.7325Z" fill="#FA3D62"/>
</svg>
